<?xml version="1.0" standalone="no"?>
<!DOCTYPE svg PUBLIC "-//W3C//DTD SVG 20010904//EN"
 "http://www.w3.org/TR/2001/REC-SVG-20010904/DTD/svg10.dtd">
<svg version="1.0" xmlns="http://www.w3.org/2000/svg"
 width="1200.000000pt" height="1200.000000pt" viewBox="0 0 1200.000000 1200.000000"
 preserveAspectRatio="xMidYMid meet">

<g transform="translate(0.000000,1200.000000) scale(0.100000,-0.100000)"
fill="#F30914" stroke="none">
<path d="M0 6000 l0 -6000 6000 0 6000 0 0 6000 0 6000 -6000 0 -6000 0 0
-6000z m4040 2119 c879 -49 2014 -264 3230 -610 583 -166 1176 -364 1590 -529
196 -78 479 -199 505 -217 43 -29 -24 -13 -132 31 -668 274 -1538 541 -2363
725 -1146 256 -2364 382 -3390 350 -524 -16 -852 -59 -1123 -150 -317 -105
-476 -248 -523 -469 -21 -100 -13 -356 15 -485 56 -259 204 -542 429 -825 101
-126 398 -423 542 -541 874 -719 1970 -1167 2925 -1196 874 -26 2055 234 3231
712 104 43 202 84 217 92 17 8 49 13 80 11 l52 -3 -255 -121 c-1282 -611
-2579 -949 -3530 -921 -578 17 -1192 190 -1860 523 -1056 527 -1835 1288
-2084 2036 -98 292 -113 631 -41 915 51 198 155 332 339 432 328 180 612 234
1321 251 335 7 550 5 825 -11z m1370 -519 c946 -44 1825 -204 2849 -522 191
-59 664 -224 831 -289 l85 -34 -61 -3 c-48 -2 -78 4 -145 28 -684 254 -1707
510 -2454 614 -443 61 -634 76 -1080 83 -580 9 -816 -20 -992 -119 -149 -84
-232 -274 -219 -505 l6 -103 -123 0 -123 0 -17 53 c-31 98 -16 292 32 417 24
64 105 176 154 213 97 74 255 125 466 152 204 26 454 31 791 15z m1225 -390
c601 -51 1500 -225 2210 -427 l100 -28 -83 -3 c-71 -2 -114 4 -295 47 -557
131 -1190 240 -1682 288 -310 30 -910 20 -1105 -18 -88 -18 -173 -62 -205
-109 -26 -38 -54 -134 -55 -187 0 -23 -2 -23 -120 -23 l-120 0 5 43 c22 165
53 242 118 291 83 64 235 107 437 124 148 13 652 14 795 2z m1780 -611 c76
-14 170 -57 218 -99 141 -123 136 -357 -10 -504 -27 -26 -80 -63 -121 -84
l-74 -36 26 -19 c32 -23 71 -88 85 -142 5 -22 19 -126 30 -230 12 -105 25
-205 30 -223 l10 -32 -154 0 c-138 0 -154 2 -159 18 -5 17 -18 125 -36 301
-18 174 -63 224 -199 219 l-74 -3 -32 -170 c-18 -93 -40 -214 -50 -267 l-17
-98 -150 0 c-138 0 -149 1 -144 18 5 16 64 324 187 972 32 173 61 325 64 337
4 16 17 25 43 33 107 28 398 34 527 9z m-4071 -59 c-7 -39 -18 -98 -25 -130
l-12 -60 -258 0 -259 0 -5 -22 c-16 -69 -45 -223 -45 -239 0 -18 11 -19 240
-19 l240 0 -1 -22 c0 -13 -10 -70 -22 -128 l-22 -105 -245 -5 -245 -5 -27
-140 c-15 -77 -27 -150 -27 -162 l-1 -23 271 0 271 0 -5 -27 c-3 -16 -14 -72
-23 -125 l-17 -98 -424 0 c-233 0 -423 3 -423 8 0 4 20 113 45 242 24 129 80
426 124 660 45 234 83 435 86 448 l5 22 409 0 409 0 -14 -70z m1160 38 c-4
-18 -15 -75 -25 -127 -11 -51 -19 -95 -19 -97 0 -2 -83 -4 -185 -4 -102 0
-185 -3 -185 -6 0 -8 -200 -1062 -207 -1091 -5 -23 -8 -23 -155 -23 -137 0
-149 1 -144 18 7 24 206 1078 206 1091 0 8 -56 11 -180 11 l-180 0 5 23 c9 40
45 225 45 231 0 3 232 6 515 6 l515 0 -6 -32z m1122 -10 c-4 -24 -14 -82 -23
-130 l-16 -88 -183 0 c-182 0 -184 0 -189 -22 -9 -39 -205 -1079 -205 -1089 0
-5 -65 -9 -151 -9 l-151 0 6 28 c3 15 49 257 101 537 53 281 99 520 102 533
l5 22 -181 0 c-100 0 -181 4 -181 9 0 8 34 183 45 229 l5 22 511 0 512 0 -7
-42z m979 -5 c-3 -27 -14 -84 -23 -128 l-17 -80 -260 -5 -260 -5 -26 -135 -26
-135 244 -3 c185 -2 243 -5 242 -15 0 -6 -10 -64 -22 -127 l-22 -115 -246 -3
-245 -2 -27 -144 c-15 -78 -27 -153 -27 -164 0 -22 0 -22 270 -22 l270 0 -6
-37 c-3 -21 -13 -76 -23 -123 l-17 -85 -422 -3 c-361 -2 -422 0 -422 12 0 16
248 1334 255 1354 3 9 95 12 411 12 l406 0 -7 -47z m1876 -213 c94 -271 141
-424 187 -610 l28 -114 12 114 c13 122 62 415 115 695 l33 170 137 3 c132 2
137 2 137 -18 0 -11 -40 -230 -89 -487 -49 -258 -106 -559 -127 -670 l-38
-203 -156 0 -155 0 -37 108 c-160 465 -222 655 -251 769 -32 126 -47 154 -47
91 0 -37 -57 -372 -120 -697 -27 -145 -50 -265 -50 -267 0 -2 -63 -4 -141 -4
l-141 0 5 23 c3 12 54 274 112 582 58 308 116 608 127 668 l21 107 175 -2 174
-3 89 -255z m-3745 -1382 c101 -66 312 -175 433 -223 51 -20 146 -51 210 -68
l116 -32 335 1 c716 1 1377 103 2013 310 160 53 207 64 250 62 l52 -3 -128
-53 c-501 -208 -1033 -353 -1557 -426 -500 -70 -954 -80 -1200 -27 -277 61
-580 215 -852 434 -49 39 -88 72 -88 74 0 1 76 3 169 3 l168 0 79 -52z m1274
28 c135 -49 199 -56 497 -56 502 1 898 21 1199 61 233 31 250 21 49 -28 -431
-107 -852 -153 -1394 -153 -353 -1 -420 9 -586 85 -70 32 -195 103 -195 111 0
2 82 4 181 4 167 0 187 -2 249 -24z"/>
<path d="M8114 6373 c-9 -7 -74 -323 -74 -362 0 -23 205 -10 256 16 46 24 100
81 115 121 16 42 14 114 -4 149 -29 56 -78 77 -187 81 -52 1 -100 -1 -106 -5z"/>
</g>
</svg>
