<?xml version="1.0" standalone="no"?>
<!DOCTYPE svg PUBLIC "-//W3C//DTD SVG 20010904//EN"
 "http://www.w3.org/TR/2001/REC-SVG-20010904/DTD/svg10.dtd">
<svg version="1.0" xmlns="http://www.w3.org/2000/svg"
 width="700.000000pt" height="1057.000000pt" viewBox="0 0 700.000000 1057.000000"
 preserveAspectRatio="xMidYMid meet">
<metadata>
Created by potrace 1.16, written by Peter Selinger 2001-2019
</metadata>
<g transform="translate(0.000000,1057.000000) scale(0.100000,-0.100000)"
fill="#000000" stroke="none">
<path d="M3661 10533 c-97 -192 -195 -498 -232 -724 l-13 -77 -80 -7 c-45 -3
-144 -17 -222 -30 -550 -93 -1065 -317 -1509 -657 -59 -45 -95 -66 -105 -62
-77 35 -129 46 -185 41 -33 -3 -77 -13 -99 -22 -57 -24 -130 -98 -157 -158
-31 -71 -31 -173 -1 -241 13 -29 19 -53 13 -60 -4 -6 -38 -48 -74 -94 -240
-302 -437 -663 -564 -1037 -72 -211 -141 -528 -159 -727 l-7 -76 -35 -7 c-87
-16 -159 -72 -201 -157 -56 -111 -39 -248 43 -345 30 -36 137 -93 173 -93 18
0 23 -5 23 -27 0 -54 41 -310 70 -433 121 -527 368 -1027 702 -1423 46 -55 92
-109 102 -122 19 -23 19 -24 -4 -77 -34 -76 -34 -184 0 -253 78 -160 271 -223
424 -136 l57 32 82 -60 c448 -325 1072 -560 1622 -611 66 -6 156 -15 200 -20
44 -6 126 -10 183 -10 l102 0 0 294 0 294 23 5 c12 3 104 18 205 33 156 23
186 25 196 13 7 -8 68 -101 136 -207 68 -106 126 -194 129 -196 9 -6 795 321
799 332 1 5 -13 103 -32 218 -19 115 -36 221 -38 235 -3 22 25 50 217 214 121
103 229 196 240 206 19 17 28 14 245 -72 124 -49 230 -88 237 -87 7 2 114 153
238 337 226 332 226 333 207 355 -10 11 -76 89 -147 171 -70 83 -137 160 -147
171 -19 22 -19 24 72 310 51 159 96 293 100 297 7 8 80 24 438 98 l52 10 0
420 c0 230 -3 419 -8 419 -26 0 -477 91 -482 97 -4 4 -49 140 -99 301 l-92
292 153 178 c84 98 159 185 165 193 11 13 -23 68 -213 350 -124 183 -227 335
-229 338 -3 2 -107 -36 -232 -85 -125 -49 -231 -89 -235 -89 -4 0 -116 92
-248 204 -162 138 -239 210 -236 220 11 38 78 463 74 467 -9 8 -780 324 -792
324 -6 0 -72 -94 -146 -208 l-133 -208 -106 13 c-58 6 -112 12 -118 13 -10 0
-13 29 -13 113 0 338 -54 681 -153 972 -57 167 -138 355 -152 355 -3 0 -13
-17 -24 -37z m-267 -1045 c-2 -51 -6 -123 -9 -161 -8 -132 19 -565 51 -818 l6
-46 -53 -6 c-30 -4 -101 -18 -158 -32 l-104 -25 -24 22 c-60 56 -217 313 -368
603 -38 72 -70 132 -72 135 -7 8 -22 -22 -63 -127 -104 -264 -123 -520 -55
-743 14 -47 28 -94 31 -105 4 -16 -11 -31 -83 -77 -48 -31 -128 -89 -177 -128
l-88 -71 -37 17 c-45 22 -153 30 -208 15 -189 -51 -279 -282 -175 -450 l28
-46 -50 -85 c-107 -185 -190 -408 -233 -627 l-26 -131 -36 -7 c-86 -16 -167
-80 -208 -163 -59 -120 -28 -272 73 -361 43 -38 116 -71 156 -71 10 0 18 -3
18 -6 0 -4 11 -62 25 -130 49 -242 149 -494 285 -715 l59 -96 -14 -48 c-61
-203 77 -397 282 -397 37 0 81 5 96 11 26 10 34 6 105 -48 309 -238 702 -395
1090 -434 l112 -11 0 -554 0 -554 -87 7 c-240 18 -518 71 -748 140 -332 100
-716 290 -977 483 -55 40 -56 43 -47 74 37 131 -42 292 -173 348 -58 25 -171
30 -222 11 -35 -14 -36 -13 -131 99 -424 502 -690 1116 -763 1767 l-8 72 29
12 c48 20 114 94 136 154 46 121 18 247 -72 333 -29 27 -63 53 -75 56 -16 5
-21 13 -18 29 3 12 8 49 11 82 10 102 35 245 66 373 112 475 322 908 628 1294
l74 94 56 -19 c136 -46 294 19 356 148 34 69 43 160 22 228 l-15 48 66 53
c272 217 650 418 998 530 230 73 539 139 686 145 l37 1 -5 -92z m1451 -300
c138 -55 254 -103 259 -108 7 -7 -55 -336 -80 -421 -3 -12 86 -92 306 -278
171 -144 317 -264 325 -267 7 -3 106 34 220 81 113 48 207 86 209 84 2 -2 75
-112 164 -245 l160 -241 -164 -164 c-90 -90 -164 -168 -164 -174 0 -6 58 -179
128 -385 l128 -375 224 -42 c124 -23 226 -42 228 -42 1 -1 2 -136 2 -300 l0
-300 -52 -10 c-29 -6 -131 -26 -227 -44 l-175 -33 -128 -375 c-70 -206 -128
-379 -128 -384 0 -6 74 -84 164 -174 l164 -164 -160 -241 c-89 -133 -162 -243
-164 -245 -2 -2 -98 35 -213 83 -185 78 -212 87 -228 75 -11 -8 -155 -129
-321 -268 -206 -174 -301 -260 -298 -270 15 -52 89 -421 85 -424 -14 -13 -550
-218 -557 -213 -5 3 -62 89 -126 191 -65 102 -123 185 -129 185 -7 0 -115 -18
-242 -40 -126 -22 -233 -40 -237 -40 -5 0 -8 114 -8 254 l0 254 48 6 c26 3 74
8 107 12 154 16 365 70 528 135 676 269 1167 847 1327 1561 33 147 56 128
-212 176 -424 77 -1002 183 -1005 185 -1 1 1 46 4 100 5 88 8 98 27 102 30 7
1226 215 1237 215 10 0 5 32 -32 177 -79 312 -252 648 -461 898 -144 173 -354
359 -519 461 l-56 35 30 92 c26 80 30 111 35 233 3 106 0 162 -12 225 -21 107
-68 255 -109 343 l-32 69 -64 -124 c-133 -258 -258 -467 -355 -593 -14 -18
-17 -17 -113 3 -54 11 -134 25 -177 31 -44 6 -81 12 -83 14 -2 1 5 72 16 157
11 85 22 191 26 237 5 51 11 82 19 82 6 0 70 -9 141 -20 197 -30 170 -41 271
118 48 75 103 161 121 190 29 45 38 52 56 46 12 -4 135 -52 272 -106z m-796
-884 l104 -18 -61 -57 c-63 -59 -139 -118 -203 -157 l-35 -21 25 139 c23 130
26 139 45 135 12 -2 68 -12 125 -21z m-585 -6 c6 -29 36 -213 36 -222 0 -15
-23 -3 -87 46 -91 69 -183 148 -183 158 0 8 147 37 197 39 26 1 34 -3 37 -21z
m1420 -350 c105 -74 301 -259 388 -367 175 -217 311 -485 383 -753 14 -51 22
-94 20 -97 -6 -5 -1040 -190 -1067 -191 -11 0 -22 17 -33 53 -78 239 -270 453
-498 557 -68 31 -205 70 -244 70 -23 0 -23 2 -23 108 l0 108 98 38 c355 139
640 332 796 539 l29 37 31 -19 c17 -11 71 -48 120 -83z m-2221 80 c2 -7 34
-50 71 -95 158 -196 417 -362 715 -459 l121 -39 0 -107 c0 -98 -2 -108 -18
-108 -40 0 -181 -42 -250 -75 -147 -70 -287 -186 -372 -310 -18 -26 -52 -88
-76 -140 -42 -88 -46 -93 -81 -100 -88 -16 -169 -79 -210 -163 -59 -120 -28
-272 73 -361 44 -38 115 -71 158 -71 16 -1 31 -22 68 -98 85 -174 207 -306
370 -400 82 -46 216 -96 291 -107 l47 -7 0 -554 0 -554 -31 0 c-59 0 -243 31
-359 61 -213 55 -419 148 -610 275 -138 91 -157 108 -142 126 24 30 43 105 43
171 0 176 -139 306 -317 295 -39 -3 -85 -12 -104 -21 -18 -10 -34 -17 -36 -17
-20 0 -159 259 -214 399 -39 99 -100 318 -114 408 -6 39 -4 43 29 63 132 81
182 258 112 396 -25 49 -83 110 -127 134 -19 10 -20 17 -14 58 12 86 72 307
109 403 21 52 64 146 97 209 l59 115 107 0 c122 0 159 13 223 82 83 87 108
198 70 311 l-21 62 32 29 c71 62 99 83 184 141 90 62 108 69 117 48z m1300
-989 c242 -87 432 -302 493 -556 23 -93 22 -267 -1 -358 -77 -304 -303 -520
-617 -589 l-28 -6 0 258 0 259 52 39 c137 103 159 301 46 429 -22 25 -53 52
-69 61 l-29 15 0 245 0 245 38 -7 c20 -4 72 -19 115 -35z m-393 -203 l0 -234
-45 -26 c-113 -67 -165 -223 -119 -359 19 -55 90 -139 134 -157 l30 -12 0
-254 c0 -211 -2 -254 -14 -254 -29 0 -153 43 -218 76 -143 72 -288 222 -350
362 -19 42 -19 45 -3 55 41 22 98 84 123 131 23 44 27 63 27 136 0 73 -4 92
-27 136 -25 47 -82 109 -123 132 -18 9 -18 12 -2 53 46 119 172 263 302 344
75 47 219 105 263 105 l22 0 0 -234z m1565 -866 c281 -50 518 -93 527 -96 15
-4 14 -12 -7 -92 -191 -711 -751 -1261 -1474 -1447 -97 -25 -279 -54 -338 -55
l-33 0 0 553 0 552 78 17 c270 55 510 241 634 493 20 39 43 94 53 123 13 40
21 52 33 48 10 -3 247 -46 527 -96z"/>
<path d="M23 1403 c4 -663 5 -674 65 -803 35 -75 147 -185 232 -227 128 -63
205 -77 400 -78 195 0 253 11 370 68 76 37 186 141 219 205 12 24 32 78 44
120 20 74 21 100 25 700 l3 622 -160 0 -161 0 0 -567 c-1 -619 -5 -679 -55
-772 -73 -134 -278 -182 -439 -102 -79 39 -116 82 -147 169 l-24 67 -3 603 -3
602 -185 0 -185 0 4 -607z"/>
<path d="M1790 1170 l0 -840 180 0 180 0 0 355 0 355 295 0 295 0 0 120 0 120
-295 0 -295 0 0 250 0 250 360 0 360 0 0 115 0 115 -540 0 -540 0 0 -840z"/>
<path d="M3150 1171 l0 -841 175 0 175 0 0 345 0 346 92 -3 91 -3 213 -340
212 -340 227 -3 227 -2 -24 32 c-12 18 -139 194 -281 392 l-257 358 60 36
c169 100 263 260 263 447 0 189 -91 324 -261 388 -54 20 -76 21 -484 25 l-428
3 0 -840z m559 599 c151 -16 214 -58 241 -159 31 -118 -44 -270 -159 -320 -45
-19 -181 -41 -258 -41 l-33 0 0 265 0 265 58 0 c31 0 99 -5 151 -10z"/>
<path d="M4790 1171 l0 -841 175 0 175 0 0 345 0 346 92 -3 91 -3 213 -340
212 -340 222 -3 c194 -2 222 0 217 13 -4 8 -128 184 -278 392 -149 208 -266
379 -261 381 6 2 37 20 70 41 160 104 245 255 245 436 0 189 -91 324 -261 388
-54 20 -76 21 -484 25 l-428 3 0 -840z m559 599 c51 -6 112 -19 136 -29 155
-69 145 -319 -17 -428 -55 -36 -105 -48 -235 -58 l-93 -8 0 267 0 266 58 0
c31 0 99 -5 151 -10z"/>
<path d="M6640 1258 c0 -419 -5 -786 -10 -827 -12 -88 -35 -129 -92 -161 -38
-22 -54 -25 -138 -24 -66 0 -120 8 -178 24 -46 12 -85 20 -88 17 -3 -3 -2 -61
1 -130 l8 -125 101 -17 c136 -23 365 -18 447 11 142 50 240 142 282 264 22 65
22 67 25 893 l3 827 -181 0 -180 0 0 -752z"/>
</g>
</svg>
